<?xml version="1.0" standalone="no"?>
<!DOCTYPE svg PUBLIC "-//W3C//DTD SVG 20010904//EN"
 "http://www.w3.org/TR/2001/REC-SVG-20010904/DTD/svg10.dtd">
<svg version="1.0" xmlns="http://www.w3.org/2000/svg"
 width="180.000000pt" height="210.000000pt" viewBox="0 0 180.000000 210.000000"
 preserveAspectRatio="xMidYMid meet">

<g transform="translate(0.000000,210.000000) scale(0.100000,-0.100000)"
fill="#000000" stroke="none">
<path d="M740 1944 c-14 -3 -54 -14 -89 -25 -246 -77 -433 -268 -503 -514 -29
-103 -31 -286 -4 -385 43 -159 145 -313 271 -407 143 -107 279 -153 456 -153
337 0 626 222 721 556 31 108 30 266 -1 378 -38 139 -92 228 -200 336 -102
102 -166 142 -294 186 -59 21 -95 26 -202 29 -71 2 -141 1 -155 -1z m52 -136
c2 -31 8 -44 21 -46 14 -3 17 4 17 42 0 39 3 46 20 46 17 0 20 -7 20 -48 0
-56 -12 -72 -56 -72 -40 0 -52 15 -60 74 -6 42 -5 46 14 46 17 0 21 -7 24 -42z
m160 17 c14 -30 28 -33 28 -5 0 11 7 20 15 20 11 0 15 -13 15 -53 0 -30 -3
-56 -6 -59 -11 -12 -42 5 -55 30 l-13 27 -4 -27 c-2 -20 -9 -28 -24 -28 -18 0
-20 4 -14 38 3 20 6 47 6 60 0 31 37 30 52 -3z m138 -13 c0 -19 -31 -112 -38
-112 -26 1 -29 17 -14 68 12 37 21 52 34 52 10 0 18 -4 18 -8z m-432 -42 c2
-14 13 -33 25 -42 20 -16 21 -17 4 -24 -10 -4 -29 -2 -43 5 -34 15 -36 14 -25
-8 11 -20 5 -31 -15 -31 -11 0 -54 79 -54 99 0 11 53 29 80 28 19 -2 26 -8 28
-27z m486 -19 l-1 -42 28 27 c19 18 33 24 46 20 15 -6 11 -13 -29 -52 -59 -55
-78 -51 -78 16 0 27 3 56 6 65 12 29 29 9 28 -34z m-600 -62 c43 -27 47 -33
32 -41 -10 -5 -20 -7 -23 -4 -8 8 -44 -25 -38 -34 3 -4 -2 -13 -10 -20 -17
-14 -16 -15 -39 62 -10 33 -10 50 -3 57 16 16 27 14 81 -20z m751 1 c33 -35
28 -49 -9 -25 -29 20 -34 11 -9 -17 21 -23 11 -33 -17 -18 -31 17 -37 4 -9
-19 17 -14 21 -23 13 -30 -7 -8 -21 -2 -49 22 l-38 33 38 42 c20 23 40 42 44
42 4 0 20 -13 36 -30z m-312 -25 c215 -56 357 -238 357 -458 0 -222 -141 -406
-355 -462 -324 -84 -637 200 -585 531 43 274 319 458 583 389z m-568 -42 c3
-16 15 -37 26 -49 12 -13 17 -28 13 -38 -6 -15 -9 -15 -28 -3 -11 8 -38 17
-58 21 -27 5 -36 11 -31 21 3 8 16 15 29 15 17 0 22 4 18 15 -7 18 2 45 15 45
5 0 12 -12 16 -27z m993 -78 c-2 -11 -13 -22 -26 -25 -13 -3 -29 -16 -36 -28
-11 -20 -14 -21 -25 -8 -9 11 -10 20 -1 36 15 27 8 35 -19 20 -20 -10 -22 -9
-25 19 -1 6 17 24 39 40 l40 31 28 -33 c15 -17 26 -41 25 -52z m-1041 -40 c45
-27 53 -42 29 -51 -14 -5 -96 42 -96 56 0 8 11 20 18 20 3 0 25 -11 49 -25z
m1093 -36 c13 -23 13 -56 0 -64 -6 -4 -13 8 -17 27 l-8 33 -5 -40 c-4 -35 -9
-40 -33 -43 -23 -3 -30 2 -41 29 -15 36 -11 59 10 59 9 0 14 -11 14 -30 0 -16
5 -30 11 -30 7 0 9 11 6 30 -11 52 39 76 63 29z m-1139 -25 c8 -9 21 -13 35
-10 47 12 36 -29 -12 -44 -28 -8 -28 -9 -6 -15 13 -5 22 -15 22 -27 0 -17 -4
-19 -27 -13 -15 3 -42 13 -60 20 -31 13 -32 15 -21 47 20 59 43 73 69 42z
m1179 -89 c0 -16 -13 -21 -74 -30 -38 -6 -46 -5 -46 8 0 11 15 20 43 27 23 6
47 12 52 14 14 5 25 -3 25 -19z m-1248 -65 c-2 -17 0 -30 6 -30 6 0 12 11 14
25 4 33 24 32 21 -1 -3 -35 21 -25 25 10 3 26 28 33 26 8 -1 -7 -2 -28 -2 -47
-2 -35 -2 -35 -49 -35 -67 0 -77 9 -68 59 8 48 34 58 27 11z m1258 -4 c0 -13
3 -38 6 -55 5 -24 3 -31 -9 -31 -9 0 -17 8 -19 17 -3 14 -12 17 -46 15 -37 -3
-42 -1 -42 17 0 18 6 21 40 21 33 0 40 3 40 20 0 11 7 20 15 20 9 0 15 -9 15
-24z m-1225 -133 c7 -27 14 -33 37 -33 21 0 28 -5 28 -19 0 -16 -9 -21 -47
-26 -27 -3 -58 -8 -69 -10 -24 -5 -34 16 -34 71 0 37 17 56 50 52 18 -2 27
-11 35 -35z m1228 10 c-3 -10 -13 -24 -22 -31 -15 -12 -15 -14 2 -26 16 -13
24 -46 10 -46 -3 0 -21 11 -39 25 -18 14 -42 25 -54 25 -15 0 -20 5 -18 18 3
11 12 16 26 15 13 -2 40 6 60 17 20 10 38 19 39 20 1 0 0 -8 -4 -17z m-343
-469 c11 -25 20 -50 20 -55 0 -18 -27 -9 -39 14 -11 21 -11 21 -7 -6 5 -39
-21 -48 -46 -16 -19 23 -19 17 -2 -25 3 -7 -1 -16 -9 -19 -11 -4 -22 9 -37 46
-21 48 -21 51 -4 64 15 11 21 10 42 -10 l24 -22 -6 32 c-7 31 -3 36 37 42 4 0
17 -20 27 -45z m-512 20 c22 -15 30 -44 13 -44 -5 0 -14 7 -21 15 -7 8 -17 15
-23 15 -6 0 -1 -10 11 -23 44 -47 15 -92 -42 -66 -24 11 -44 44 -33 55 8 9 37
-8 37 -22 0 -8 7 -14 15 -14 18 0 9 26 -11 34 -14 5 -20 47 -7 59 11 12 37 8
61 -9z m104 -36 c9 -8 18 -36 21 -65 5 -47 4 -53 -12 -53 -11 0 -22 7 -25 15
-4 12 -14 14 -41 9 -19 -3 -35 -3 -35 2 0 12 61 104 69 104 4 0 14 -6 23 -12z
m248 -1 c0 -7 -12 -18 -27 -24 l-28 -11 28 -1 c34 -1 35 -18 2 -27 -39 -10
-30 -27 10 -20 27 5 35 4 35 -7 0 -16 -29 -27 -71 -27 -23 0 -28 5 -33 38 -4
20 -9 45 -12 54 -4 13 5 19 38 26 59 14 58 14 58 -1z m-160 -52 c0 -43 1 -45
30 -45 20 0 30 -5 30 -15 0 -10 -10 -15 -34 -15 -66 0 -75 13 -60 89 10 49 34
39 34 -14z"/>
<path d="M600 1760 c0 -5 5 -10 10 -10 6 0 10 5 10 10 0 6 -4 10 -10 10 -5 0
-10 -4 -10 -10z"/>
<path d="M497 1665 c3 -8 9 -12 14 -9 12 7 11 11 -5 17 -10 4 -13 1 -9 -8z"/>
<path d="M830 1528 c-22 -31 -22 -32 -2 -14 28 24 29 3 1 -25 -13 -13 -18 -27
-14 -39 5 -15 3 -18 -9 -14 -14 5 -14 3 0 -25 9 -17 20 -28 25 -25 6 3 26 6
45 6 20 0 34 5 34 12 0 7 9 21 20 31 26 23 25 47 -1 76 l-21 24 17 -28 c9 -16
14 -36 12 -45 -4 -13 -5 -13 -6 -2 -1 8 -19 28 -41 44 -21 16 -37 33 -34 38 3
5 13 3 22 -4 15 -12 16 -11 3 5 -18 23 -24 22 -51 -15z m70 -50 c0 -3 3 -15 6
-25 5 -17 5 -17 -10 1 -8 10 -19 15 -25 12 -13 -8 -22 8 -15 28 5 12 9 13 25
3 10 -6 19 -15 19 -19z m-24 -41 c8 3 14 0 14 -6 0 -6 -13 -11 -30 -11 -29 0
-38 9 -23 24 4 3 11 2 16 -3 5 -5 16 -7 23 -4z m-29 -33 c-3 -3 -12 -4 -19 -1
-8 3 -5 6 6 6 11 1 17 -2 13 -5z"/>
<path d="M840 1351 c0 -11 -6 -22 -12 -24 -8 -4 -7 -6 3 -6 19 -1 28 -19 22
-38 -7 -20 -21 -15 -26 10 -3 12 -4 8 -4 -12 1 -18 7 -36 14 -38 7 -3 13 -14
13 -24 0 -17 2 -18 14 -7 9 8 10 14 4 17 -6 2 7 15 28 28 21 14 30 22 19 19
-16 -4 -24 3 -37 31 -19 41 -17 53 7 33 9 -7 18 -10 22 -6 3 3 1 6 -5 6 -7 0
-12 7 -12 15 0 9 -9 15 -25 15 -18 0 -25 -5 -25 -19z m40 -91 c0 -5 -7 -10
-15 -10 -8 0 -15 5 -15 10 0 6 7 10 15 10 8 0 15 -4 15 -10z"/>
<path d="M1028 1293 c6 -2 18 -2 25 0 6 3 1 5 -13 5 -14 0 -19 -2 -12 -5z"/>
<path d="M528 1148 c-29 -57 -54 -106 -56 -110 -2 -5 23 -8 56 -8 32 0 62 -3
65 -6 4 -4 -9 -28 -28 -54 -19 -26 -35 -52 -35 -57 0 -29 156 -133 199 -133
20 0 23 2 11 10 -11 7 -14 32 -15 107 0 89 2 101 23 123 12 13 22 30 22 37 0
7 6 13 13 13 8 0 7 4 -3 11 -13 9 -13 10 0 6 10 -3 15 -16 14 -40 -1 -20 2
-34 6 -32 4 2 5 -7 2 -20 -4 -23 -1 -25 32 -25 29 0 36 4 36 19 0 10 7 24 15
31 13 10 15 9 15 -8 0 -15 5 -20 15 -16 22 9 18 31 -7 38 -29 8 -73 44 -64 53
4 4 15 2 26 -5 10 -6 21 -8 23 -4 8 12 6 92 -2 92 -12 0 -82 -38 -100 -54 -14
-13 -27 -14 -82 -5 -35 6 -83 8 -107 5 l-42 -6 35 70 35 70 -24 0 c-20 0 -32
-15 -78 -102z m217 -68 c17 -7 16 -9 -10 -9 -16 0 -50 4 -75 8 l-45 8 55 1
c30 0 64 -3 75 -8z m95 -74 c0 -3 -4 -8 -10 -11 -5 -3 -10 -1 -10 4 0 6 5 11
10 11 6 0 10 -2 10 -4z"/>
<path d="M800 1230 c8 -5 20 -10 25 -10 6 0 3 5 -5 10 -8 5 -19 10 -25 10 -5
0 -3 -5 5 -10z"/>
<path d="M1110 1180 c16 -33 30 -62 30 -65 0 -3 -25 -5 -55 -5 -59 0 -75 -16
-22 -23 31 -4 31 -4 -5 -5 -22 -1 -38 -7 -38 -14 0 -6 -7 -20 -17 -30 -16 -17
-11 -18 117 -18 116 0 131 2 126 16 -3 8 -33 58 -67 110 -42 65 -67 94 -80 94
-18 0 -17 -5 11 -60z"/>
<path d="M936 926 c-23 -47 -26 -63 -20 -99 4 -23 7 -48 5 -56 -2 -11 6 -12
38 -7 56 9 91 23 91 38 0 21 -46 128 -67 156 l-19 25 -28 -57z"/>
<path d="M1350 1571 c0 -6 5 -13 10 -16 6 -3 10 1 10 9 0 9 -4 16 -10 16 -5 0
-10 -4 -10 -9z"/>
<path d="M280 1405 c0 -8 5 -15 10 -15 6 0 10 7 10 15 0 8 -4 15 -10 15 -5 0
-10 -7 -10 -15z"/>
<path d="M232 1129 c2 -6 8 -10 13 -10 5 0 11 4 13 10 2 6 -4 11 -13 11 -9 0
-15 -5 -13 -11z"/>
<path d="M737 633 c-4 -3 -7 -11 -7 -17 0 -6 5 -5 12 2 6 6 9 14 7 17 -3 3 -9
2 -12 -2z"/>
<path d="M295 455 c-77 -26 -120 -30 -159 -15 -35 13 -33 5 14 -46 22 -24 40
-48 40 -54 0 -6 -20 -33 -46 -60 l-45 -48 31 -7 c30 -6 101 -1 143 11 14 4 17
-1 17 -34 0 -37 2 -40 43 -53 72 -24 178 -17 312 22 169 48 254 47 425 -5 138
-42 253 -52 323 -28 34 12 37 17 37 51 l0 38 48 -8 c65 -11 104 -10 122 1 12
8 7 17 -28 52 -39 41 -53 71 -34 80 4 2 22 19 39 38 l33 36 -73 0 c-50 0 -91
7 -134 23 -59 22 -64 23 -87 7 -20 -12 -26 -26 -28 -63 l-3 -48 -49 4 c-27 1
-112 21 -190 42 -167 46 -215 48 -351 13 -136 -36 -216 -53 -242 -54 -21 0
-23 5 -23 49 0 40 -4 53 -22 65 -27 19 -27 20 -113 -9z m108 -10 c-1 -5 -25
-13 -52 -16 -27 -4 -54 -10 -60 -13 -7 -5 -9 -33 -5 -81 6 -75 5 -75 -22 -85
-15 -6 -50 -10 -78 -8 l-51 3 38 41 c20 23 37 47 37 55 0 7 -17 31 -37 53 -21
21 -32 35 -24 31 24 -14 83 -8 141 13 56 21 117 25 113 7z m1025 -19 c24 -8
60 -16 80 -18 20 -1 40 -7 44 -12 5 -7 8 -7 8 2 0 6 6 12 13 12 6 0 -5 -16
-25 -35 -41 -37 -47 -55 -23 -75 8 -7 13 -16 10 -20 -3 -4 3 -14 13 -21 15
-13 16 -12 3 4 -20 25 -8 21 17 -6 l22 -24 -42 -2 c-24 -1 -60 1 -82 5 l-39 6
6 74 c4 58 2 77 -9 89 -14 13 -51 21 -78 16 -17 -4 -37 9 -31 19 8 13 57 7
113 -14z m-488 -20 c14 -3 63 -17 109 -31 46 -14 90 -25 98 -25 10 0 13 -6 9
-16 -5 -13 -4 -14 7 -6 7 6 24 9 38 6 48 -10 148 -4 202 12 15 5 17 -3 16 -70
-1 -44 -5 -76 -11 -76 -6 0 -5 -7 3 -16 17 -21 0 -31 -67 -40 -69 -8 -153 1
-239 26 -179 53 -235 62 -315 49 -41 -6 -104 -20 -140 -31 -36 -11 -78 -23
-95 -27 -48 -10 -223 -7 -234 4 -5 6 -13 52 -17 104 l-7 94 29 -9 c16 -5 72
-9 124 -9 78 0 115 6 208 33 63 18 120 31 128 28 7 -3 16 0 20 6 6 10 70 7
134 -6z"/>
<path d="M718 334 c-12 -22 -17 -63 -8 -69 5 -3 10 4 11 17 1 23 1 23 9 -2 l8
-25 0 25 c1 31 -13 67 -20 54z"/>
<path d="M812 305 c0 -22 2 -34 5 -27 2 6 8 10 13 7 4 -3 7 6 6 19 0 13 -4 22
-8 20 -3 -2 -9 2 -11 8 -3 7 -5 -5 -5 -27z"/>
<path d="M909 338 c-5 -16 -3 -61 3 -64 4 -3 8 11 8 30 0 20 -2 36 -5 36 -3 0
-5 -1 -6 -2z"/>
<path d="M940 328 c0 -7 -3 -24 -6 -38 l-5 -25 14 25 15 24 5 -24 c4 -25 4
-25 6 -2 0 13 -6 30 -14 38 -12 12 -15 12 -15 2z"/>
<path d="M586 318 c3 -5 10 -6 15 -3 13 9 11 12 -6 12 -8 0 -12 -4 -9 -9z"/>
<path d="M671 313 c1 -10 4 -29 8 -43 l7 -25 6 29 c6 32 1 56 -13 56 -5 0 -9
-8 -8 -17z"/>
<path d="M755 321 c-4 -7 1 -8 12 -4 15 5 16 3 6 -8 -18 -18 -16 -39 3 -39 11
0 14 8 12 27 -3 28 -22 41 -33 24z"/>
<path d="M857 323 c-11 -10 -8 -41 4 -49 6 -3 16 -1 22 6 9 10 9 11 0 6 -6 -3
-14 -2 -18 4 -3 5 1 10 9 10 9 0 16 7 16 15 0 15 -21 21 -33 8z"/>
<path d="M1106 322 c-3 -5 1 -9 9 -9 8 0 12 4 9 9 -3 4 -7 8 -9 8 -2 0 -6 -4
-9 -8z"/>
<path d="M1015 290 c-4 -17 -5 -34 -2 -36 2 -3 7 10 11 27 8 42 0 50 -9 9z"/>
<path d="M1051 320 c-1 -3 -5 -21 -11 -40 -9 -32 -8 -33 5 -16 15 19 15 19 16
-5 l0 -24 10 24 c5 14 6 27 1 30 -5 3 -12 13 -15 21 -3 8 -6 13 -6 10z"/>
<path d="M1306 293 c-6 -14 -5 -15 5 -6 7 7 10 15 7 18 -3 3 -9 -2 -12 -12z"/>
<path d="M582 282 c-9 -6 -10 -15 -3 -33 l10 -24 1 25 1 25 14 -25 15 -25 -6
28 c-7 33 3 36 16 5 10 -23 10 -23 7 2 -2 26 -31 38 -55 22z"/>
<path d="M340 243 c0 -24 3 -43 6 -43 12 0 33 35 33 55 0 18 -1 17 -15 -5 -8
-14 -13 -18 -11 -9 3 9 1 22 -4 30 -6 9 -9 0 -9 -28z"/>
<path d="M492 263 c-16 -17 -7 -66 11 -60 15 5 21 42 10 61 -7 12 -10 12 -21
-1z m18 -34 c0 -11 -4 -17 -10 -14 -5 3 -10 13 -10 21 0 8 5 14 10 14 6 0 10
-9 10 -21z"/>
<path d="M1085 259 c-8 -23 11 -43 29 -32 5 4 1 9 -9 13 -17 6 -17 7 4 13 13
3 20 10 16 16 -11 18 -33 12 -40 -10z"/>
<path d="M1160 247 c0 -20 4 -37 10 -37 5 0 7 14 3 33 -8 45 -13 47 -13 4z"/>
<path d="M396 245 c-18 -27 -21 -45 -7 -45 5 0 12 12 17 28 l7 27 8 -30 c7
-29 7 -28 6 8 -1 43 -9 46 -31 12z"/>
<path d="M530 246 c0 -29 10 -38 29 -27 17 11 5 51 -15 51 -8 0 -14 -10 -14
-24z m24 -1 c3 -8 1 -15 -4 -15 -6 0 -10 7 -10 15 0 8 2 15 4 15 2 0 6 -7 10
-15z"/>
<path d="M1187 256 c-7 -18 3 -56 14 -56 4 0 13 8 18 18 9 15 10 14 11 -6 0
-31 34 -26 38 6 3 20 -2 24 -25 21 -4 0 -10 8 -14 18 -7 17 -8 17 -8 1 -1 -10
-5 -18 -11 -18 -5 0 -7 7 -4 15 4 8 2 15 -4 15 -5 0 -12 -6 -15 -14z m65 -48
c-9 -9 -12 -7 -12 12 0 19 3 21 12 12 9 -9 9 -15 0 -24z"/>
<path d="M1313 225 c0 -22 2 -30 4 -17 2 12 2 30 0 40 -3 9 -5 -1 -4 -23z"/>
<path d="M1356 233 c6 -37 -12 -46 -19 -10 l-4 22 -2 -23 c-1 -22 23 -41 36
-28 3 3 1 20 -5 38 l-11 33 5 -32z"/>
<path d="M440 243 c1 -14 30 -48 30 -34 0 7 -7 19 -15 27 -8 9 -15 12 -15 7z"/>
<path d="M1280 215 c0 -14 2 -25 4 -25 2 0 6 11 8 25 3 14 1 25 -3 25 -5 0 -9
-11 -9 -25z"/>
</g>
</svg>
